<?xml version="1.0" encoding="UTF-8" standalone="no"?>
<!-- Created with Inkscape (http://www.inkscape.org/) -->

<svg
   xmlns:dc="http://purl.org/dc/elements/1.1/"
   xmlns:cc="http://creativecommons.org/ns#"
   xmlns:rdf="http://www.w3.org/1999/02/22-rdf-syntax-ns#"
   xmlns:svg="http://www.w3.org/2000/svg"
   xmlns="http://www.w3.org/2000/svg"
   xmlns:sodipodi="http://sodipodi.sourceforge.net/DTD/sodipodi-0.dtd"
   xmlns:inkscape="http://www.inkscape.org/namespaces/inkscape"
   width="210mm"
   height="297mm"
   viewBox="0 0 210 297"
   version="1.1"
   id="svg3544"
   inkscape:version="0.92.1 r15371"
   sodipodi:docname="dsadwqasdweqdasd.svg">
  <defs
     id="defs3538">
    <clipPath
       clipPathUnits="userSpaceOnUse"
       id="clipPath2292">
      <path
         d="M 0,3545.656 H 1920 V 0 H 0 Z"
         id="path2290"
         inkscape:connector-curvature="0" />
    </clipPath>
  </defs>
  <sodipodi:namedview
     id="base"
     pagecolor="#ffffff"
     bordercolor="#666666"
     borderopacity="1.0"
     inkscape:pageopacity="0.0"
     inkscape:pageshadow="2"
     inkscape:zoom="0.35"
     inkscape:cx="400"
     inkscape:cy="560"
     inkscape:document-units="mm"
     inkscape:current-layer="layer1"
     showgrid="false"
     inkscape:window-width="1920"
     inkscape:window-height="1009"
     inkscape:window-x="-8"
     inkscape:window-y="-8"
     inkscape:window-maximized="1" />
  <metadata
     id="metadata3541">
    <rdf:RDF>
      <cc:Work
         rdf:about="">
        <dc:format>image/svg+xml</dc:format>
        <dc:type
           rdf:resource="http://purl.org/dc/dcmitype/StillImage" />
        <dc:title></dc:title>
      </cc:Work>
    </rdf:RDF>
  </metadata>
  <g
     inkscape:label="Layer 1"
     inkscape:groupmode="layer"
     id="layer1">
    <g
       id="g3398"
       transform="matrix(0.20334391,0,0,-0.20334391,-185.17206,459.9963)"
       inkscape:export-xdpi="96"
       inkscape:export-ydpi="96">
      <g
         clip-path="url(#clipPath2292)"
         id="g3396">
        <g
           transform="translate(1036.0942,1976.61)"
           id="g3146">
          <path
             inkscape:connector-curvature="0"
             id="path3144"
             style="fill:#360c0b;fill-opacity:1;fill-rule:nonzero;stroke:none"
             d="M 0,0 C -0.704,0.115 -1.429,0.186 -2.172,0.186 -2.353,0.186 -2.531,0.176 -2.71,0.168 1.762,-2.394 6.322,-3.109 7.724,-3.276 7.123,-2.854 6.217,-2.274 5.096,-1.708 3.664,-1.369 1.872,-0.833 0,0" />
        </g>
        <g
           transform="translate(1031.8898,1977.7068)"
           id="g3150">
          <path
             inkscape:connector-curvature="0"
             id="path3148"
             style="fill:#360c0b;fill-opacity:1;fill-rule:nonzero;stroke:none"
             d="M 0,0 C 0.58,0.081 1.176,0.13 1.786,0.141 0.372,0.968 -1.019,1.984 -2.27,3.235 -7.156,8.122 -8.484,15.146 -8.786,17.298 -6.635,16.997 0.382,15.674 5.276,10.781 6.527,9.531 7.544,8.14 8.371,6.726 8.382,7.335 8.43,7.931 8.511,8.511 7.802,9.559 6.979,10.58 6.027,11.532 -0.06,17.618 -8.974,18.404 -9.351,18.435 -9.495,18.447 -9.659,18.391 -9.769,18.28 -9.879,18.17 -9.936,18.017 -9.923,17.863 -9.892,17.486 -9.106,8.571 -3.02,2.484 -2.068,1.532 -1.047,0.71 0,0" />
        </g>
        <g
           transform="translate(1044.7747,1974.2892)"
           id="g3154">
          <path
             inkscape:connector-curvature="0"
             id="path3152"
             style="fill:#360c0b;fill-opacity:1;fill-rule:nonzero;stroke:none"
             d="m 0,0 c -0.167,1.402 -0.883,5.962 -3.444,10.435 -0.008,-0.179 -0.019,-0.357 -0.019,-0.538 0,-0.744 0.072,-1.469 0.186,-2.172 C -2.444,5.852 -1.908,4.06 -1.568,2.628 -1.003,1.508 -0.422,0.602 0,0" />
        </g>
        <g
           transform="translate(1041.1902,1974.902)"
           id="g3158">
          <path
             inkscape:connector-curvature="0"
             id="path3156"
             style="fill:#360c0b;fill-opacity:1;fill-rule:nonzero;stroke:none"
             d="m 0,0 c 0.886,-0.21 1.633,-0.345 2.176,-0.43 -0.137,0.215 -0.28,0.448 -0.428,0.698 -2.08,1.228 -5.321,2.688 -9.016,2.688 -0.084,0 -0.164,-0.009 -0.247,-0.011 0.806,-0.471 1.62,-0.881 2.419,-1.237 C -3.16,1.392 -1.409,0.711 0,0" />
        </g>
        <g
           transform="translate(1044.5935,1972.766)"
           id="g3162">
          <path
             inkscape:connector-curvature="0"
             id="path3160"
             style="fill:#360c0b;fill-opacity:1;fill-rule:nonzero;stroke:none"
             d="m 0,0 c -0.031,0.036 -0.187,0.224 -0.415,0.529 -0.072,0.006 -0.196,0.019 -0.36,0.039 0.115,-0.081 0.22,-0.156 0.312,-0.224 -1.404,-1.033 -5.472,-3.685 -10.209,-3.685 -4.729,0 -8.801,2.652 -10.209,3.685 1.354,0.994 5.175,3.479 9.672,3.668 -0.501,0.287 -1.001,0.594 -1.495,0.929 -5.255,-0.736 -9.203,-4.035 -9.388,-4.192 -0.118,-0.101 -0.187,-0.249 -0.187,-0.405 0,-0.155 0.069,-0.304 0.187,-0.404 0.208,-0.177 5.179,-4.342 11.42,-4.342 6.24,0 11.212,4.165 11.421,4.342 0.011,0.009 0.016,0.024 0.026,0.034 C 0.677,-0.124 0.546,-0.187 0.404,-0.187 0.249,-0.187 0.101,-0.118 0,0" />
        </g>
        <g
           transform="translate(1041.1902,1974.902)"
           id="g3166">
          <path
             inkscape:connector-curvature="0"
             id="path3164"
             style="fill:#360c0b;fill-opacity:1;fill-rule:nonzero;stroke:none"
             d="M 0,0 C 1.121,-0.566 2.027,-1.146 2.628,-1.568 2.792,-1.588 2.916,-1.601 2.988,-1.607 2.774,-1.321 2.493,-0.922 2.176,-0.43 1.633,-0.345 0.886,-0.21 0,0" />
        </g>
        <g
           transform="translate(1033.9218,1976.7963)"
           id="g3170">
          <path
             inkscape:connector-curvature="0"
             id="path3168"
             style="fill:#360c0b;fill-opacity:1;fill-rule:nonzero;stroke:none"
             d="M 0,0 C 0.744,0 1.469,-0.072 2.172,-0.186 1.373,0.169 0.56,0.579 -0.246,1.051 -0.856,1.04 -1.452,0.992 -2.032,0.911 -1.538,0.575 -1.038,0.268 -0.538,-0.018 -0.359,-0.011 -0.181,0 0,0" />
        </g>
        <g
           transform="translate(1042.9385,1975.1698)"
           id="g3174">
          <path
             inkscape:connector-curvature="0"
             id="path3172"
             style="fill:#360c0b;fill-opacity:1;fill-rule:nonzero;stroke:none"
             d="M 0,0 C 0.25,-0.147 0.483,-0.29 0.697,-0.428 0.613,0.115 0.478,0.862 0.268,1.748 -0.443,3.156 -1.125,4.908 -1.44,6.844 -1.796,7.643 -2.206,8.457 -2.678,9.263 -2.679,9.18 -2.688,9.1 -2.688,9.016 -2.688,5.321 -1.228,2.08 0,0" />
        </g>
        <g
           transform="translate(1044.9979,1994.3953)"
           id="g3178">
          <path
             inkscape:connector-curvature="0"
             id="path3176"
             style="fill:#360c0b;fill-opacity:1;fill-rule:nonzero;stroke:none"
             d="m 0,0 c 1.033,-1.407 3.685,-5.48 3.685,-10.209 0,-4.728 -2.652,-8.801 -3.685,-10.209 -0.068,0.092 -0.143,0.197 -0.223,0.312 0.019,-0.164 0.032,-0.288 0.039,-0.36 0.304,-0.228 0.492,-0.384 0.528,-0.415 0.118,-0.101 0.186,-0.249 0.186,-0.404 0,-0.141 -0.061,-0.271 -0.159,-0.37 0.01,0.01 0.024,0.015 0.033,0.026 0.177,0.208 4.342,5.181 4.342,11.42 0,6.241 -4.165,11.212 -4.342,11.42 C 0.304,1.329 0.155,1.398 0,1.398 -0.155,1.398 -0.304,1.329 -0.404,1.211 -0.562,1.026 -3.861,-2.922 -4.597,-8.177 -4.262,-8.671 -3.954,-9.171 -3.668,-9.672 -3.479,-5.175 -0.994,-1.353 0,0" />
        </g>
        <g
           transform="translate(1041.498,1982.014)"
           id="g3182">
          <path
             inkscape:connector-curvature="0"
             id="path3180"
             style="fill:#360c0b;fill-opacity:1;fill-rule:nonzero;stroke:none"
             d="m 0,0 c -0.115,0.704 -0.186,1.428 -0.186,2.172 0,0.181 0.011,0.359 0.018,0.538 -0.287,0.501 -0.594,1 -0.929,1.494 C -1.178,3.624 -1.227,3.028 -1.237,2.419 -0.766,1.612 -0.355,0.799 0,0" />
        </g>
        <g
           transform="translate(1043.6357,1974.7415)"
           id="g3186">
          <path
             inkscape:connector-curvature="0"
             id="path3184"
             style="fill:#360c0b;fill-opacity:1;fill-rule:nonzero;stroke:none"
             d="M 0,0 C 0.493,-0.316 0.891,-0.597 1.178,-0.812 1.171,-0.74 1.158,-0.616 1.139,-0.452 0.716,0.15 0.136,1.056 -0.429,2.176 -0.219,1.29 -0.084,0.544 0,0" />
        </g>
        <g
           transform="translate(1045.342,1973.5145)"
           id="g3190">
          <path
             inkscape:connector-curvature="0"
             id="path3188"
             style="fill:#360c0b;fill-opacity:1;fill-rule:nonzero;stroke:none"
             d="m 0,0 c -0.036,0.031 -0.224,0.187 -0.528,0.415 0.002,-0.032 0.005,-0.056 0.006,-0.069 0.012,-0.155 -0.044,-0.308 -0.155,-0.418 -0.099,-0.1 -0.235,-0.155 -0.375,-0.155 -0.015,0 -0.029,0 -0.043,0.001 -0.012,0.001 -0.037,0.003 -0.068,0.006 0.228,-0.305 0.384,-0.493 0.414,-0.529 0.101,-0.118 0.249,-0.186 0.405,-0.186 0.141,0 0.272,0.062 0.37,0.161 0.099,0.099 0.16,0.229 0.16,0.37 C 0.186,-0.249 0.118,-0.101 0,0" />
        </g>
        <g
           transform="translate(1043.6357,1974.7415)"
           id="g3194">
          <path
             inkscape:connector-curvature="0"
             id="path3192"
             style="fill:#360c0b;fill-opacity:1;fill-rule:nonzero;stroke:none"
             d="m 0,0 c -0.215,0.138 -0.448,0.281 -0.697,0.428 0.147,-0.25 0.29,-0.482 0.428,-0.697 0.113,-0.018 0.221,-0.034 0.316,-0.047 C 0.034,-0.221 0.018,-0.113 0,0" />
        </g>
        <g
           transform="translate(1043.6827,1974.4253)"
           id="g3198">
          <path
             inkscape:connector-curvature="0"
             id="path3196"
             style="fill:#360c0b;fill-opacity:1;fill-rule:nonzero;stroke:none"
             d="M 0,0 C -0.095,0.013 -0.203,0.029 -0.316,0.047 0,-0.446 0.281,-0.844 0.496,-1.131 c 0.032,-0.003 0.056,-0.005 0.069,-0.006 0.013,-10e-4 0.028,-10e-4 0.042,-10e-4 0.14,0 0.276,0.055 0.375,0.156 0.112,0.109 0.168,0.262 0.155,0.417 C 1.136,-0.552 1.134,-0.528 1.131,-0.496 0.844,-0.281 0.446,0 -0.047,0.316 -0.029,0.203 -0.013,0.095 0,0" />
        </g>
        <g
           transform="translate(1788.8375,1973.3336)"
           id="g3202">
          <path
             inkscape:connector-curvature="0"
             id="path3200"
             style="fill:#360c0b;fill-opacity:1;fill-rule:nonzero;stroke:none"
             d="M 0,0 C 1.402,0.167 5.962,0.883 10.435,3.444 10.256,3.452 10.078,3.463 9.897,3.463 9.153,3.463 8.428,3.391 7.724,3.276 5.852,2.444 4.06,1.908 2.628,1.568 1.508,1.002 0.602,0.422 0,0" />
        </g>
        <g
           transform="translate(1803.4114,1980.5663)"
           id="g3206">
          <path
             inkscape:connector-curvature="0"
             id="path3204"
             style="fill:#360c0b;fill-opacity:1;fill-rule:nonzero;stroke:none"
             d="M 0,0 H 0.01 Z M -7.922,7.922 C -3.035,12.808 3.99,14.136 6.141,14.438 5.841,12.287 4.517,5.27 -0.375,0.375 c -1.251,-1.25 -2.642,-2.267 -4.056,-3.094 0.61,-0.011 1.206,-0.059 1.786,-0.14 1.047,0.71 2.068,1.532 3.02,2.484 6.086,6.087 6.872,15.001 6.903,15.378 0.013,0.154 -0.043,0.308 -0.155,0.418 -0.109,0.11 -0.272,0.166 -0.417,0.154 -0.377,-0.031 -9.292,-0.817 -15.378,-6.903 -0.952,-0.952 -1.775,-1.973 -2.484,-3.02 0.081,-0.581 0.129,-1.177 0.14,-1.786 0.827,1.414 1.844,2.805 3.094,4.056" />
        </g>
        <g
           transform="translate(1791.1578,1982.0133)"
           id="g3210">
          <path
             inkscape:connector-curvature="0"
             id="path3208"
             style="fill:#360c0b;fill-opacity:1;fill-rule:nonzero;stroke:none"
             d="m 0,0 c 0.115,0.704 0.186,1.429 0.186,2.173 0,0.181 -0.011,0.359 -0.018,0.537 -2.562,-4.472 -3.277,-9.032 -3.444,-10.434 0.422,0.601 1.002,1.508 1.568,2.629 C -1.368,-3.663 -0.833,-1.872 0,0" />
        </g>
        <g
           transform="translate(1787.2874,1972.7407)"
           id="g3214">
          <path
             inkscape:connector-curvature="0"
             id="path3212"
             style="fill:#360c0b;fill-opacity:1;fill-rule:nonzero;stroke:none"
             d="m 0,0 c -0.098,0.099 -0.16,0.229 -0.16,0.369 0,0.156 0.068,0.304 0.186,0.405 0.037,0.03 0.225,0.187 0.529,0.415 0.007,0.072 0.02,0.196 0.039,0.359 C 0.514,1.434 0.438,1.329 0.371,1.237 c -1.034,1.404 -3.686,5.471 -3.686,10.209 0,4.728 2.652,8.801 3.686,10.209 0.993,-1.354 3.478,-5.175 3.667,-9.672 0.287,0.501 0.594,1.001 0.93,1.495 -0.736,5.255 -4.036,9.203 -4.193,9.388 -0.201,0.236 -0.607,0.236 -0.808,0 -0.178,-0.209 -4.343,-5.179 -4.343,-11.42 0,-6.24 4.165,-11.212 4.343,-11.421 C -0.024,0.015 -0.01,0.01 0,0" />
        </g>
        <g
           transform="translate(1789.0204,1974.7415)"
           id="g3218">
          <path
             inkscape:connector-curvature="0"
             id="path3216"
             style="fill:#360c0b;fill-opacity:1;fill-rule:nonzero;stroke:none"
             d="m 0,0 c 0.215,0.138 0.448,0.281 0.697,0.428 1.229,2.08 2.688,5.321 2.688,9.017 0,0.083 -0.008,0.163 -0.01,0.246 C 2.903,8.885 2.493,8.071 2.137,7.272 1.822,5.336 1.141,3.585 0.429,2.176 0.219,1.29 0.084,0.544 0,0" />
        </g>
        <g
           transform="translate(1789.4498,1976.9178)"
           id="g3222">
          <path
             inkscape:connector-curvature="0"
             id="path3220"
             style="fill:#360c0b;fill-opacity:1;fill-rule:nonzero;stroke:none"
             d="m 0,0 c -0.566,-1.121 -1.146,-2.027 -1.568,-2.629 -0.02,-0.163 -0.032,-0.287 -0.039,-0.359 0.286,0.214 0.685,0.495 1.178,0.812 C -0.345,-1.633 -0.21,-0.886 0,0" />
        </g>
        <g
           transform="translate(1791.3441,1984.1863)"
           id="g3226">
          <path
             inkscape:connector-curvature="0"
             id="path3224"
             style="fill:#360c0b;fill-opacity:1;fill-rule:nonzero;stroke:none"
             d="M 0,0 C 0,-0.744 -0.072,-1.469 -0.186,-2.173 0.169,-1.374 0.579,-0.56 1.051,0.246 1.041,0.855 0.992,1.451 0.911,2.032 0.576,1.538 0.269,1.038 -0.018,0.537 -0.011,0.359 0,0.181 0,0" />
        </g>
        <g
           transform="translate(1808.9431,1973.1101)"
           id="g3230">
          <path
             inkscape:connector-curvature="0"
             id="path3228"
             style="fill:#360c0b;fill-opacity:1;fill-rule:nonzero;stroke:none"
             d="m 0,0 c -1.407,-1.033 -5.48,-3.685 -10.208,-3.685 -4.728,0 -8.802,2.652 -10.21,3.685 0.093,0.068 0.198,0.143 0.312,0.224 -0.163,-0.02 -0.287,-0.033 -0.36,-0.039 -0.228,-0.305 -0.384,-0.493 -0.415,-0.529 -0.1,-0.118 -0.249,-0.187 -0.404,-0.187 -0.141,0 -0.272,0.063 -0.371,0.162 0.011,-0.011 0.015,-0.026 0.027,-0.035 0.208,-0.177 5.18,-4.342 11.421,-4.342 6.24,0 11.211,4.165 11.42,4.342 0.117,0.1 0.186,0.249 0.186,0.404 0,0.155 -0.069,0.303 -0.186,0.404 C 1.026,0.562 -2.922,3.861 -8.177,4.597 -8.67,4.262 -9.17,3.955 -9.671,3.668 -5.174,3.479 -1.353,0.994 0,0" />
        </g>
        <g
           transform="translate(1789.7177,1975.1696)"
           id="g3234">
          <path
             inkscape:connector-curvature="0"
             id="path3232"
             style="fill:#360c0b;fill-opacity:1;fill-rule:nonzero;stroke:none"
             d="m 0,0 c -0.148,-0.25 -0.29,-0.483 -0.428,-0.697 0.543,0.084 1.29,0.219 2.176,0.429 C 3.157,0.444 4.908,1.125 6.844,1.44 7.643,1.796 8.457,2.206 9.263,2.678 9.18,2.679 9.1,2.688 9.017,2.688 5.321,2.688 2.08,1.229 0,0" />
        </g>
        <g
           transform="translate(1796.5618,1976.61)"
           id="g3238">
          <path
             inkscape:connector-curvature="0"
             id="path3236"
             style="fill:#360c0b;fill-opacity:1;fill-rule:nonzero;stroke:none"
             d="m 0,0 c 0.704,0.115 1.429,0.186 2.173,0.186 0.181,0 0.359,-0.01 0.538,-0.018 0.5,0.287 1,0.594 1.494,0.929 C 3.624,1.178 3.028,1.227 2.419,1.237 1.613,0.766 0.799,0.356 0,0" />
        </g>
        <g
           transform="translate(1789.2894,1974.4723)"
           id="g3242">
          <path
             inkscape:connector-curvature="0"
             id="path3240"
             style="fill:#360c0b;fill-opacity:1;fill-rule:nonzero;stroke:none"
             d="m 0,0 c -0.316,-0.493 -0.598,-0.891 -0.812,-1.178 0.072,0.007 0.196,0.02 0.36,0.039 0.602,0.423 1.508,1.003 2.628,1.568 C 1.29,0.219 0.544,0.084 0,0" />
        </g>
        <g
           transform="translate(1789.0204,1974.7415)"
           id="g3246">
          <path
             inkscape:connector-curvature="0"
             id="path3244"
             style="fill:#360c0b;fill-opacity:1;fill-rule:nonzero;stroke:none"
             d="m 0,0 c -0.018,-0.114 -0.034,-0.221 -0.047,-0.316 0.095,0.013 0.203,0.029 0.316,0.047 C 0.407,-0.054 0.55,0.178 0.697,0.428 0.448,0.281 0.215,0.138 0,0" />
        </g>
        <g
           transform="translate(1788.0623,1972.766)"
           id="g3250">
          <path
             inkscape:connector-curvature="0"
             id="path3248"
             style="fill:#360c0b;fill-opacity:1;fill-rule:nonzero;stroke:none"
             d="M 0,0 C 0.031,0.036 0.187,0.224 0.415,0.529 0.383,0.526 0.359,0.524 0.346,0.523 0.332,0.521 0.318,0.521 0.303,0.521 c -0.139,0 -0.275,0.055 -0.375,0.156 -0.11,0.11 -0.166,0.263 -0.154,0.418 0.001,0.012 0.003,0.037 0.006,0.068 C -0.524,0.935 -0.712,0.779 -0.748,0.749 -0.867,0.648 -0.935,0.5 -0.935,0.344 c 0,-0.14 0.062,-0.271 0.16,-0.369 0.099,-0.099 0.23,-0.162 0.371,-0.162 0.155,0 0.304,0.069 0.404,0.187" />
        </g>
        <g
           transform="translate(1787.9907,1973.443)"
           id="g3254">
          <path
             inkscape:connector-curvature="0"
             id="path3252"
             style="fill:#360c0b;fill-opacity:1;fill-rule:nonzero;stroke:none"
             d="m 0,0 c 0.099,-0.101 0.235,-0.156 0.375,-0.156 0.015,0 0.029,0 0.043,0.002 0.012,0.001 0.037,0.003 0.069,0.006 C 0.701,0.138 0.982,0.537 1.299,1.029 1.185,1.012 1.077,0.995 0.982,0.982 0.996,1.077 1.012,1.185 1.03,1.298 0.537,0.982 0.138,0.701 -0.148,0.486 -0.151,0.455 -0.153,0.43 -0.154,0.418 -0.167,0.263 -0.111,0.11 0,0" />
        </g>
        <g
           transform="translate(1787.8815,1530.8633)"
           id="g3258">
          <path
             inkscape:connector-curvature="0"
             id="path3256"
             style="fill:#360c0b;fill-opacity:1;fill-rule:nonzero;stroke:none"
             d="m 0,0 c 0.167,-1.403 0.883,-5.962 3.444,-10.435 0.008,0.179 0.019,0.357 0.019,0.538 0,0.744 -0.072,1.469 -0.187,2.173 C 2.443,-5.852 1.908,-4.061 1.568,-2.629 1.003,-1.508 0.422,-0.602 0,0" />
        </g>
        <g
           transform="translate(1796.5608,1528.543)"
           id="g3262">
          <path
             inkscape:connector-curvature="0"
             id="path3260"
             style="fill:#360c0b;fill-opacity:1;fill-rule:nonzero;stroke:none"
             d="m 0,0 c 0.704,-0.115 1.429,-0.187 2.174,-0.187 0.181,0 0.359,0.011 0.537,0.019 C -1.761,2.393 -6.32,3.109 -7.723,3.276 -7.121,2.854 -6.215,2.273 -5.094,1.708 -3.662,1.368 -1.871,0.832 0,0" />
        </g>
        <g
           transform="translate(1800.7664,1527.4459)"
           id="g3266">
          <path
             inkscape:connector-curvature="0"
             id="path3264"
             style="fill:#360c0b;fill-opacity:1;fill-rule:nonzero;stroke:none"
             d="m 0,0 c -0.581,-0.081 -1.177,-0.13 -1.786,-0.141 1.414,-0.827 2.805,-1.843 4.056,-3.094 4.886,-4.888 6.214,-11.911 6.516,-14.063 -2.151,0.301 -9.168,1.624 -14.063,6.517 -1.25,1.251 -2.267,2.642 -3.094,4.055 -0.011,-0.609 -0.059,-1.205 -0.14,-1.786 0.709,-1.046 1.532,-2.068 2.484,-3.02 6.086,-6.086 15.001,-6.872 15.378,-6.903 0.014,-0.001 0.028,-0.001 0.042,-0.001 0.141,0 0.276,0.055 0.375,0.156 0.112,0.11 0.168,0.263 0.155,0.417 C 9.892,-17.485 9.106,-8.571 3.02,-2.484 2.068,-1.532 1.047,-0.71 0,0" />
        </g>
        <g
           transform="translate(1788.0623,1532.3867)"
           id="g3270">
          <path
             inkscape:connector-curvature="0"
             id="path3268"
             style="fill:#360c0b;fill-opacity:1;fill-rule:nonzero;stroke:none"
             d="m 0,0 c 0.031,-0.036 0.187,-0.224 0.415,-0.529 0.073,-0.006 0.197,-0.019 0.36,-0.039 -0.114,0.081 -0.219,0.156 -0.312,0.224 1.404,1.033 5.472,3.685 10.209,3.685 4.729,0 8.802,-2.652 10.209,-3.685 -1.354,-0.994 -5.175,-3.479 -9.671,-3.668 0.5,-0.287 1,-0.594 1.494,-0.929 5.255,0.736 9.203,4.035 9.389,4.192 0.117,0.101 0.186,0.249 0.186,0.405 0,0.155 -0.069,0.303 -0.186,0.404 C 21.884,0.237 16.913,4.402 10.672,4.402 4.432,4.402 -0.54,0.237 -0.748,0.06 -0.76,0.05 -0.765,0.034 -0.776,0.023 -0.567,0.229 -0.192,0.226 0,0" />
        </g>
        <g
           transform="translate(1791.4667,1530.2505)"
           id="g3274">
          <path
             inkscape:connector-curvature="0"
             id="path3272"
             style="fill:#360c0b;fill-opacity:1;fill-rule:nonzero;stroke:none"
             d="m 0,0 c -0.887,0.21 -1.633,0.346 -2.177,0.43 0.138,-0.215 0.28,-0.448 0.428,-0.697 2.08,-1.229 5.321,-2.688 9.017,-2.688 0.083,0 0.163,0.008 0.246,0.01 -0.807,0.472 -1.62,0.882 -2.42,1.237 C 3.159,-1.392 1.408,-0.711 0,0" />
        </g>
        <g
           transform="translate(1791.4667,1530.2505)"
           id="g3278">
          <path
             inkscape:connector-curvature="0"
             id="path3276"
             style="fill:#360c0b;fill-opacity:1;fill-rule:nonzero;stroke:none"
             d="M 0,0 C -1.121,0.566 -2.027,1.146 -2.629,1.569 -2.793,1.588 -2.917,1.601 -2.989,1.608 -2.775,1.321 -2.494,0.923 -2.177,0.43 -1.633,0.346 -0.887,0.21 0,0" />
        </g>
        <g
           transform="translate(1798.7346,1528.3564)"
           id="g3282">
          <path
             inkscape:connector-curvature="0"
             id="path3280"
             style="fill:#360c0b;fill-opacity:1;fill-rule:nonzero;stroke:none"
             d="m 0,0 c -0.744,0 -1.47,0.072 -2.174,0.187 0.8,-0.356 1.613,-0.766 2.42,-1.238 0.609,0.01 1.205,0.059 1.786,0.14 C 1.538,-0.576 1.038,-0.268 0.537,0.018 0.359,0.011 0.181,0 0,0" />
        </g>
        <g
           transform="translate(1787.658,1510.7574)"
           id="g3286">
          <path
             inkscape:connector-curvature="0"
             id="path3284"
             style="fill:#360c0b;fill-opacity:1;fill-rule:nonzero;stroke:none"
             d="m 0,0 c -1.033,1.407 -3.685,5.48 -3.685,10.208 0,4.728 2.652,8.802 3.685,10.21 0.068,-0.093 0.143,-0.198 0.224,-0.312 -0.02,0.163 -0.033,0.288 -0.04,0.36 -0.304,0.228 -0.492,0.384 -0.528,0.415 -0.118,0.1 -0.186,0.248 -0.186,0.404 0,0.14 0.061,0.269 0.158,0.368 -0.009,-0.01 -0.023,-0.013 -0.032,-0.024 -0.177,-0.208 -4.342,-5.18 -4.342,-11.421 0,-6.24 4.165,-11.211 4.342,-11.42 0.101,-0.118 0.249,-0.186 0.404,-0.186 0.155,0 0.304,0.068 0.404,0.186 0.158,0.185 3.458,4.134 4.193,9.389 C 4.262,8.671 3.955,9.17 3.668,9.671 3.479,5.174 0.994,1.353 0,0" />
        </g>
        <g
           transform="translate(1789.7177,1529.9832)"
           id="g3290">
          <path
             inkscape:connector-curvature="0"
             id="path3288"
             style="fill:#360c0b;fill-opacity:1;fill-rule:nonzero;stroke:none"
             d="m 0,0 c -0.25,0.147 -0.483,0.29 -0.697,0.428 0.084,-0.544 0.219,-1.29 0.429,-2.177 0.711,-1.408 1.393,-3.159 1.708,-5.095 0.356,-0.799 0.766,-1.612 1.238,-2.419 10e-4,0.083 0.01,0.163 0.01,0.246 C 2.688,-5.321 1.228,-2.08 0,0" />
        </g>
        <g
           transform="translate(1791.1578,1523.1394)"
           id="g3294">
          <path
             inkscape:connector-curvature="0"
             id="path3292"
             style="fill:#360c0b;fill-opacity:1;fill-rule:nonzero;stroke:none"
             d="m 0,0 c 0.115,-0.704 0.186,-1.429 0.186,-2.173 0,-0.181 -0.011,-0.359 -0.018,-0.538 0.287,-0.501 0.594,-1 0.929,-1.494 0.081,0.58 0.13,1.176 0.141,1.786 C 0.766,-1.613 0.356,-0.799 0,0" />
        </g>
        <g
           transform="translate(1789.0204,1530.4113)"
           id="g3298">
          <path
             inkscape:connector-curvature="0"
             id="path3296"
             style="fill:#360c0b;fill-opacity:1;fill-rule:nonzero;stroke:none"
             d="M 0,0 C -0.493,0.316 -0.891,0.597 -1.178,0.812 -1.171,0.74 -1.158,0.615 -1.139,0.452 -0.716,-0.15 -0.136,-1.056 0.429,-2.177 0.219,-1.29 0.084,-0.544 0,0" />
        </g>
        <g
           transform="translate(1787.3138,1531.6382)"
           id="g3302">
          <path
             inkscape:connector-curvature="0"
             id="path3300"
             style="fill:#360c0b;fill-opacity:1;fill-rule:nonzero;stroke:none"
             d="M 0,0 C 0.036,-0.031 0.224,-0.187 0.529,-0.415 0.526,-0.383 0.524,-0.359 0.522,-0.346 0.51,-0.192 0.566,-0.038 0.677,0.072 0.787,0.182 0.949,0.234 1.094,0.226 1.107,0.225 1.132,0.223 1.164,0.22 0.935,0.524 0.779,0.712 0.748,0.749 0.556,0.974 0.181,0.978 -0.027,0.772 -0.125,0.673 -0.186,0.544 -0.186,0.404 -0.186,0.249 -0.118,0.101 0,0" />
        </g>
        <g
           transform="translate(1789.0204,1530.4113)"
           id="g3306">
          <path
             inkscape:connector-curvature="0"
             id="path3304"
             style="fill:#360c0b;fill-opacity:1;fill-rule:nonzero;stroke:none"
             d="M 0,0 C 0.215,-0.138 0.448,-0.281 0.697,-0.428 0.55,-0.178 0.407,0.054 0.269,0.269 0.156,0.287 0.048,0.303 -0.047,0.316 -0.034,0.221 -0.018,0.113 0,0" />
        </g>
        <g
           transform="translate(1788.973,1530.7274)"
           id="g3310">
          <path
             inkscape:connector-curvature="0"
             id="path3308"
             style="fill:#360c0b;fill-opacity:1;fill-rule:nonzero;stroke:none"
             d="M 0,0 C 0.095,-0.013 0.203,-0.029 0.316,-0.047 0,0.446 -0.281,0.844 -0.495,1.131 -0.527,1.134 -0.552,1.136 -0.565,1.137 -0.71,1.145 -0.872,1.093 -0.982,0.982 -1.093,0.873 -1.149,0.719 -1.137,0.565 -1.135,0.552 -1.134,0.528 -1.131,0.496 -0.844,0.281 -0.446,0 0.047,-0.316 0.03,-0.203 0.014,-0.095 0,0" />
        </g>
        <g
           transform="translate(1037.1663,1516.6647)"
           id="g3314">
          <path
             inkscape:connector-curvature="0"
             id="path3312"
             style="fill:#360c0b;fill-opacity:1;fill-rule:nonzero;stroke:none"
             d="m 0,0 c -4.887,-4.887 -11.911,-6.214 -14.063,-6.516 0.301,2.151 1.624,9.168 6.517,14.062 1.251,1.251 2.642,2.268 4.056,3.095 -0.61,0.01 -1.206,0.059 -1.786,0.14 -1.047,-0.71 -2.069,-1.532 -3.021,-2.484 -6.086,-6.087 -6.872,-15.001 -6.903,-15.379 -0.012,-0.154 0.044,-0.307 0.155,-0.417 0.099,-0.101 0.235,-0.156 0.375,-0.156 0.015,0 0.029,0 0.042,0.001 0.377,0.032 9.292,0.817 15.378,6.904 C 1.703,0.201 2.525,1.223 3.235,2.27 3.154,2.85 3.105,3.446 3.094,4.055 2.267,2.642 1.251,1.251 0,0" />
        </g>
        <g
           transform="translate(1041.4983,1523.1389)"
           id="g3318">
          <path
             inkscape:connector-curvature="0"
             id="path3316"
             style="fill:#360c0b;fill-opacity:1;fill-rule:nonzero;stroke:none"
             d="m 0,0 c -0.115,-0.704 -0.187,-1.429 -0.187,-2.173 0,-0.181 0.011,-0.358 0.019,-0.537 C 2.393,1.762 3.109,6.321 3.276,7.724 2.854,7.122 2.274,6.216 1.708,5.095 1.368,3.663 0.833,1.872 0,0" />
        </g>
        <g
           transform="translate(1043.8186,1531.8191)"
           id="g3322">
          <path
             inkscape:connector-curvature="0"
             id="path3320"
             style="fill:#360c0b;fill-opacity:1;fill-rule:nonzero;stroke:none"
             d="m 0,0 c -1.403,-0.167 -5.962,-0.883 -10.434,-3.444 0.179,-0.008 0.356,-0.019 0.537,-0.019 0.744,0 1.47,0.072 2.173,0.187 1.872,0.833 3.664,1.368 5.096,1.708 C -1.508,-1.003 -0.602,-0.422 0,0" />
        </g>
        <g
           transform="translate(1045.368,1532.4125)"
           id="g3326">
          <path
             inkscape:connector-curvature="0"
             id="path3324"
             style="fill:#360c0b;fill-opacity:1;fill-rule:nonzero;stroke:none"
             d="m 0,0 c 0.098,-0.099 0.16,-0.229 0.16,-0.37 0,-0.156 -0.068,-0.304 -0.186,-0.404 -0.036,-0.031 -0.224,-0.187 -0.528,-0.415 -0.007,-0.072 -0.02,-0.197 -0.04,-0.36 0.081,0.114 0.156,0.219 0.224,0.312 1.033,-1.405 3.685,-5.472 3.685,-10.21 0,-4.728 -2.652,-8.801 -3.685,-10.208 -0.994,1.353 -3.479,5.174 -3.668,9.671 -0.287,-0.501 -0.594,-1 -0.929,-1.494 0.736,-5.255 4.035,-9.204 4.192,-9.389 0.101,-0.118 0.249,-0.186 0.405,-0.186 0.155,0 0.304,0.068 0.404,0.186 0.177,0.209 4.342,5.18 4.342,11.42 0,6.241 -4.165,11.213 -4.342,11.421 C 0.025,-0.015 0.01,-0.01 0,0" />
        </g>
        <g
           transform="translate(1043.6357,1530.4113)"
           id="g3330">
          <path
             inkscape:connector-curvature="0"
             id="path3328"
             style="fill:#360c0b;fill-opacity:1;fill-rule:nonzero;stroke:none"
             d="m 0,0 c -0.215,-0.138 -0.448,-0.281 -0.697,-0.428 -1.229,-2.08 -2.688,-5.322 -2.688,-9.017 0,-0.083 0.008,-0.164 0.01,-0.246 0.472,0.806 0.882,1.619 1.238,2.419 0.315,1.935 0.996,3.686 1.707,5.095 C -0.219,-1.291 -0.084,-0.544 0,0" />
        </g>
        <g
           transform="translate(1041.3118,1520.9659)"
           id="g3334">
          <path
             inkscape:connector-curvature="0"
             id="path3332"
             style="fill:#360c0b;fill-opacity:1;fill-rule:nonzero;stroke:none"
             d="M 0,0 C 0,0.744 0.072,1.469 0.187,2.173 -0.169,1.374 -0.579,0.56 -1.051,-0.246 c 0.011,-0.609 0.059,-1.205 0.14,-1.786 0.336,0.494 0.643,0.994 0.929,1.495 C 0.011,-0.359 0,-0.181 0,0" />
        </g>
        <g
           transform="translate(1043.2061,1528.2341)"
           id="g3338">
          <path
             inkscape:connector-curvature="0"
             id="path3336"
             style="fill:#360c0b;fill-opacity:1;fill-rule:nonzero;stroke:none"
             d="m 0,0 c 0.566,1.121 1.146,2.027 1.568,2.629 0.02,0.164 0.033,0.288 0.04,0.36 C 1.321,2.774 0.923,2.493 0.43,2.177 0.346,1.633 0.21,0.886 0,0" />
        </g>
        <g
           transform="translate(1023.7128,1532.0426)"
           id="g3342">
          <path
             inkscape:connector-curvature="0"
             id="path3340"
             style="fill:#360c0b;fill-opacity:1;fill-rule:nonzero;stroke:none"
             d="m 0,0 c 1.407,1.033 5.48,3.685 10.209,3.685 4.727,0 8.801,-2.652 10.209,-3.685 -0.093,-0.068 -0.198,-0.143 -0.312,-0.224 0.164,0.02 0.288,0.033 0.36,0.039 0.228,0.305 0.384,0.493 0.415,0.529 0.1,0.118 0.249,0.186 0.404,0.186 0.141,0 0.272,-0.062 0.37,-0.16 -0.01,0.01 -0.014,0.025 -0.026,0.034 -0.208,0.177 -5.18,4.342 -11.42,4.342 C 3.968,4.746 -1.003,0.581 -1.211,0.404 -1.329,0.303 -1.398,0.155 -1.398,0 c 0,-0.156 0.069,-0.304 0.187,-0.404 0.185,-0.158 4.133,-3.457 9.388,-4.193 0.494,0.335 0.994,0.643 1.495,0.929 C 5.175,-3.479 1.354,-0.994 0,0" />
        </g>
        <g
           transform="translate(1042.9385,1529.9829)"
           id="g3346">
          <path
             inkscape:connector-curvature="0"
             id="path3344"
             style="fill:#360c0b;fill-opacity:1;fill-rule:nonzero;stroke:none"
             d="m 0,0 c 0.147,0.25 0.29,0.483 0.428,0.698 -0.544,-0.085 -1.29,-0.22 -2.176,-0.43 -1.409,-0.711 -3.16,-1.393 -5.096,-1.708 -0.799,-0.356 -1.612,-0.766 -2.419,-1.238 0.083,-10e-4 0.163,-0.01 0.246,-0.01 3.696,0 6.937,1.46 9.017,2.688" />
        </g>
        <g
           transform="translate(1036.0947,1528.5427)"
           id="g3350">
          <path
             inkscape:connector-curvature="0"
             id="path3348"
             style="fill:#360c0b;fill-opacity:1;fill-rule:nonzero;stroke:none"
             d="m 0,0 c -0.704,-0.115 -1.429,-0.186 -2.173,-0.186 -0.181,0 -0.358,0.01 -0.537,0.018 -0.501,-0.287 -1.001,-0.594 -1.495,-0.929 0.581,-0.081 1.177,-0.13 1.786,-0.14 C -1.613,-0.766 -0.799,-0.355 0,0" />
        </g>
        <g
           transform="translate(1043.3666,1530.6804)"
           id="g3354">
          <path
             inkscape:connector-curvature="0"
             id="path3352"
             style="fill:#360c0b;fill-opacity:1;fill-rule:nonzero;stroke:none"
             d="M 0,0 C 0.316,0.493 0.598,0.891 0.812,1.178 0.74,1.171 0.616,1.158 0.452,1.139 -0.15,0.716 -1.056,0.136 -2.176,-0.43 -1.29,-0.219 -0.544,-0.084 0,0" />
        </g>
        <g
           transform="translate(1044.5935,1532.3867)"
           id="g3358">
          <path
             inkscape:connector-curvature="0"
             id="path3356"
             style="fill:#360c0b;fill-opacity:1;fill-rule:nonzero;stroke:none"
             d="m 0,0 c -0.031,-0.036 -0.187,-0.224 -0.415,-0.529 0.032,0.003 0.056,0.006 0.069,0.007 0.145,0.008 0.308,-0.044 0.418,-0.155 0.111,-0.11 0.167,-0.263 0.154,-0.418 -0.001,-0.012 -0.003,-0.037 -0.006,-0.068 0.305,0.228 0.493,0.384 0.529,0.414 0.118,0.101 0.186,0.249 0.186,0.405 0,0.141 -0.062,0.271 -0.16,0.37 C 0.676,0.124 0.545,0.186 0.404,0.186 0.249,0.186 0.101,0.118 0,0" />
        </g>
        <g
           transform="translate(1043.6357,1530.4113)"
           id="g3362">
          <path
             inkscape:connector-curvature="0"
             id="path3360"
             style="fill:#360c0b;fill-opacity:1;fill-rule:nonzero;stroke:none"
             d="M 0,0 C 0.018,0.114 0.034,0.221 0.047,0.316 -0.048,0.303 -0.156,0.287 -0.269,0.269 -0.407,0.054 -0.55,-0.178 -0.697,-0.428 -0.448,-0.281 -0.215,-0.138 0,0" />
        </g>
        <g
           transform="translate(1044.6652,1531.7098)"
           id="g3366">
          <path
             inkscape:connector-curvature="0"
             id="path3364"
             style="fill:#360c0b;fill-opacity:1;fill-rule:nonzero;stroke:none"
             d="M 0,0 C -0.11,0.111 -0.273,0.163 -0.418,0.154 -0.43,0.153 -0.455,0.151 -0.487,0.148 c -0.214,-0.286 -0.495,-0.685 -0.812,-1.177 0.114,0.017 0.222,0.033 0.317,0.047 -0.014,-0.096 -0.03,-0.203 -0.047,-0.317 0.493,0.317 0.891,0.598 1.177,0.812 0.003,0.032 0.005,0.057 0.006,0.069 C 0.167,-0.263 0.111,-0.11 0,0" />
        </g>
        <g
           transform="translate(1809.3087,1548.6279)"
           id="g3370">
          <path
             inkscape:connector-curvature="0"
             id="path3368"
             style="fill:#360c0b;fill-opacity:1;fill-rule:nonzero;stroke:none"
             d="m 0,0 c -20.973,-0.297 -37.967,-17.343 -38.182,-38.335 h -709.793 c -0.216,20.992 -17.21,38.038 -38.184,38.335 v 408.247 c 20.857,0.295 37.779,17.153 38.179,37.985 H -38.177 C -37.777,425.4 -20.856,408.542 0,408.247 Z m 0.557,409.748 c -20.533,0 -37.236,16.703 -37.236,37.236 v 0.752 h -712.799 v -0.752 c 0,-20.533 -16.703,-37.236 -37.236,-37.236 h -0.95 V -1.501 h 0.95 c 20.533,0 37.236,-16.703 37.236,-37.236 v -1.103 h 712.799 v 1.103 c 0,20.533 16.703,37.236 37.236,37.236 h 0.948 v 411.249 z" />
        </g>
        <g
           transform="translate(1416.2299,1972.4523)"
           id="g3374">
          <path
             inkscape:connector-curvature="0"
             id="path3372"
             style="fill:#360c0b;fill-opacity:1;fill-rule:nonzero;stroke:none"
             d="m 0,0 c -1.054,0 -1.911,-0.857 -1.911,-1.911 0,-1.053 0.857,-1.91 1.911,-1.91 1.053,0 1.91,0.857 1.91,1.91 C 1.91,-0.857 1.053,0 0,0 m 0,-5.326 c -1.883,0 -3.416,1.532 -3.416,3.415 0,1.883 1.533,3.415 3.416,3.415 1.883,0 3.415,-1.532 3.415,-3.415 0,-1.883 -1.532,-3.415 -3.415,-3.415" />
        </g>
        <g
           transform="translate(1410.6968,1971.7793)"
           id="g3378">
          <path
             inkscape:connector-curvature="0"
             id="path3376"
             style="fill:#360c0b;fill-opacity:1;fill-rule:nonzero;stroke:none"
             d="m 0,0 -279.483,-0.16 -32.08,-0.209 -32.08,-0.367 32.08,-0.366 32.08,-0.21 L 0,-1.472 Z" />
        </g>
        <g
           transform="translate(1733.3254,1971.4121)"
           id="g3382">
          <path
             inkscape:connector-curvature="0"
             id="path3380"
             style="fill:#360c0b;fill-opacity:1;fill-rule:nonzero;stroke:none"
             d="M 0,0 -32.08,0.21 -311.563,0.368 V -1.105 L -32.08,-0.947 0,-0.737 32.079,-0.369 Z" />
        </g>
        <g
           transform="translate(1416.2299,1534.3656)"
           id="g3386">
          <path
             inkscape:connector-curvature="0"
             id="path3384"
             style="fill:#360c0b;fill-opacity:1;fill-rule:nonzero;stroke:none"
             d="m 0,0 c -1.054,0 -1.911,-0.857 -1.911,-1.91 0,-1.054 0.857,-1.911 1.911,-1.911 1.053,0 1.91,0.857 1.91,1.911 C 1.91,-0.857 1.053,0 0,0 m 0,-5.326 c -1.883,0 -3.416,1.533 -3.416,3.416 0,1.883 1.533,3.415 3.416,3.415 1.883,0 3.415,-1.532 3.415,-3.415 0,-1.883 -1.532,-3.416 -3.415,-3.416" />
        </g>
        <g
           transform="translate(1421.7621,1531.7191)"
           id="g3390">
          <path
             inkscape:connector-curvature="0"
             id="path3388"
             style="fill:#360c0b;fill-opacity:1;fill-rule:nonzero;stroke:none"
             d="m 0,0 279.483,0.16 32.08,0.21 32.08,0.366 -32.08,0.366 -32.08,0.21 L 0,1.472 Z" />
        </g>
        <g
           transform="translate(1099.1339,1532.0867)"
           id="g3394">
          <path
             inkscape:connector-curvature="0"
             id="path3392"
             style="fill:#360c0b;fill-opacity:1;fill-rule:nonzero;stroke:none"
             d="M 0,0 32.079,-0.21 311.563,-0.368 V 1.105 L 32.079,0.947 0,0.737 -32.08,0.369 Z" />
        </g>
      </g>
    </g>
  </g>
</svg>
